# xmcd
#
# Track frame offsets:
#	150
#	27758
#	43148
#	67753
#	83306
#	101891
#	118496
#	134925
#	146100
#	167841
#	180450
#	190350
#	214747
#	231075
#
# Disc length: 3304 seconds
#
# Revision: 1
# Processed by: cddbd v1.5.2PL0 Copyright (c) Steve Scherf et al.
# Submitted via: audiograbber 1.83.01
#
DISCID=ce0ce60e
DTITLE=Celtic Music - Spirit Of The North
DYEAR=1900
DGENRE=New Age
TTITLE0=Busker's Dream
TTITLE1=Scarborough Fair
TTITLE2=Pyramid - In The Wood - In The Bright Light - Star Of The County Down
TTITLE3=Carolan's Ramble To Cashel
TTITLE4=Triut Will Rise
TTITLE5=Killiekrankie
TTITLE6=The Fair Haired Lass
TTITLE7=Carolan's Receipt
TTITLE8=The Mushrooms Of Tagerness
TTITLE9=Princess Royal
TTITLE10=Sheep Under The Snow
TTITLE11=The Lakes Of Ponchatrain - The Lowlands Of Holland - The Flemish Tune
TTITLE12=Caoinleach Ghlas An Fhomhair
TTITLE13=The Spiral Dance
EXTD=
EXTT0=
EXTT1=
EXTT2=
EXTT3=
EXTT4=
EXTT5=
EXTT6=
EXTT7=
EXTT8=
EXTT9=
EXTT10=
EXTT11=
EXTT12=
EXTT13=
PLAYORDER=
